<?xml version="1.0" encoding="utf-8"?><!-- Uploaded to: SVG Repo, www.svgrepo.com, Generator: SVG Repo Mixer Tools -->
<svg fill="#000000" width="800px" height="800px" viewBox="0 0 24 24" id="atom" data-name="Flat Color" xmlns="http://www.w3.org/2000/svg" class="icon flat-color"><circle id="secondary" cx="12" cy="12" r="1.5" style="fill: rgb(44, 169, 188);"></circle><path id="primary" d="M12,22c-1.49,0-2.78-1.17-3.68-3.09a7,7,0,0,1-2.8-.1,3.33,3.33,0,0,1-2.15-1.58h0c-.76-1.41-.31-3.31,1.06-5.23C3.06,10.08,2.61,8.18,3.37,6.77A3.33,3.33,0,0,1,5.52,5.19a7,7,0,0,1,2.8-.1C9.22,3.17,10.51,2,12,2s2.78,1.17,3.68,3.09a7,7,0,0,1,2.8.1,3.33,3.33,0,0,1,2.15,1.58c.76,1.41.31,3.31-1.06,5.23,1.37,1.92,1.82,3.82,1.06,5.23a3.33,3.33,0,0,1-2.15,1.58,7.15,7.15,0,0,1-2.8.1C14.78,20.83,13.49,22,12,22Zm-1.67-3.56c.54,1,1.16,1.56,1.67,1.56s1.13-.55,1.66-1.56A15.41,15.41,0,0,1,12,17.82,14.8,14.8,0,0,1,10.33,18.44Zm6-1.47A4.83,4.83,0,0,0,18,16.88a1.37,1.37,0,0,0,.91-.6h0c.29-.55.08-1.53-.64-2.69a16.53,16.53,0,0,1-1.43,1.3A15.93,15.93,0,0,1,16.38,17ZM5.77,13.59c-.72,1.16-.93,2.14-.64,2.69h0a1.37,1.37,0,0,0,.91.6A4.83,4.83,0,0,0,7.62,17a15.93,15.93,0,0,1-.42-2.08A16.53,16.53,0,0,1,5.77,13.59Zm3.32.24c.44.33.93.66,1.45,1s1,.57,1.46.81c.48-.24,1-.51,1.46-.81s1-.65,1.45-1A17.8,17.8,0,0,0,15,12a17.8,17.8,0,0,0-.09-1.83c-.44-.33-.93-.66-1.45-1s-1-.57-1.46-.81c-.48.24-1,.51-1.46.81s-1,.65-1.45,1a18.65,18.65,0,0,0,0,3.66ZM16.8,9.11a16.53,16.53,0,0,1,1.43,1.3c.72-1.16.93-2.14.64-2.69a1.37,1.37,0,0,0-.91-.6A4.57,4.57,0,0,0,16.38,7,15.93,15.93,0,0,1,16.8,9.11ZM7.05,7a3.73,3.73,0,0,0-1,.12,1.37,1.37,0,0,0-.91.6c-.29.55-.08,1.53.64,2.69A16.53,16.53,0,0,1,7.2,9.11,15.93,15.93,0,0,1,7.62,7Zm3.29-1.44A15.41,15.41,0,0,1,12,6.18a14.8,14.8,0,0,1,1.67-.62C13.13,4.55,12.51,4,12,4S10.87,4.55,10.34,5.56Z" style="fill: rgb(0, 0, 0);"></path></svg>